<svg width="236" height="236" viewBox="0 0 236 236" fill="none" xmlns="http://www.w3.org/2000/svg">
<g clip-path="url(#clip0_48_698)">
<path d="M108.167 147.5H127.833V167.167H108.167V147.5ZM108.167 68.8334H127.833V127.833H108.167V68.8334ZM117.902 19.6667C63.6217 19.6667 19.6667 63.72 19.6667 118C19.6667 172.28 63.6217 216.333 117.902 216.333C172.28 216.333 216.333 172.28 216.333 118C216.333 63.72 172.28 19.6667 117.902 19.6667ZM118 196.667C74.5367 196.667 39.3333 161.463 39.3333 118C39.3333 74.5367 74.5367 39.3334 118 39.3334C161.463 39.3334 196.667 74.5367 196.667 118C196.667 161.463 161.463 196.667 118 196.667Z" fill="#8C1C13"/>
</g>
<defs>
<clipPath id="clip0_48_698">
<rect width="236" height="236" fill="white"/>
</clipPath>
</defs>
</svg>
