<svg width="206" height="206" viewBox="0 0 206 206" fill="none" xmlns="http://www.w3.org/2000/svg">
<path d="M182.181 0.0801746L68.8813 15.4982C58.5813 16.5421 51.5 25.7769 51.5 36.0556V141.733C46.7523 140.89 41.6023 140.89 36.05 142.055C16.4961 147.194 0 164.419 0 181.885C0 199.35 16.4961 209.83 36.05 204.69C55.6039 199.551 72.1 182.005 72.1 164.539V76.2067L185.4 61.1099V130.812C180.652 129.969 175.502 130.33 169.95 131.776C150.396 136.915 133.9 154.14 133.9 171.606C133.9 189.072 150.396 199.551 169.95 194.412C189.504 189.272 206 171.726 206 154.261V20.6376C206 8.31115 194.533 -0.96375 182.181 0.0801746Z" fill="#8C1C13"/>
</svg>
